<svg xmlns="http://www.w3.org/2000/svg" xmlns:xlink="http://www.w3.org/1999/xlink" version="1.1" x="0px" y="0px" viewBox="0 0 100 100" style="enable-background:new 0 0 100 100;" xml:space="preserve"><g><path d="M29,78.8h10.2C40,84,44.5,88,50,88s10-4,10.8-9.2H71c2.1,0,4.1-0.9,5.6-2.5c1.4-1.6,2.1-3.7,1.9-5.8   c-0.2-1.8-1.8-5.9-4.8-12.8c-0.4-1-0.9-2.2-1.2-2.7V44.2c0-11.7-8.8-21.6-20-22.8v-2.9c0-1.4-1.1-2.5-2.5-2.5s-2.5,1.1-2.5,2.5v2.9   c-4.9,0.5-9.5,2.7-13.1,6.2c-4.4,4.3-6.9,10-6.9,16.2V55c-0.2,0.5-0.7,1.7-1.2,2.7c-3,6.9-4.6,10.9-4.8,12.8   c-0.2,2.1,0.5,4.2,1.9,5.8C24.9,77.9,26.9,78.8,29,78.8z M50,83c-2.7,0-5-1.8-5.7-4.2h11.5C55,81.2,52.7,83,50,83z M30.9,59.7   c1.5-3.5,1.6-3.6,1.6-4.3V43.8c0-4.8,1.9-9.3,5.3-12.6c3.3-3.2,7.6-4.9,12.1-4.9c0.2,0,0.4,0,0.6,0c9.3,0.3,16.9,8.4,16.9,18v11.2   c0,0.7,0.1,0.8,1.6,4.3c1.2,2.7,4.3,9.8,4.4,11.3c0.1,0.7-0.2,1.4-0.6,1.9c-0.5,0.5-1.1,0.8-1.9,0.8H29c-0.7,0-1.4-0.3-1.9-0.8   c-0.5-0.5-0.7-1.2-0.6-1.9C26.7,69.6,29.8,62.4,30.9,59.7z"/></g></svg>