<svg xmlns="http://www.w3.org/2000/svg" version="1.1" viewBox="-5.0 -10.0 110.0 110.0">
 <path d="m29.285 42.191h17.145v52.551h-17.145z"/>
 <path d="m53.57 56.43h17.145v38.312h-17.145z"/>
 <path d="m77.855 32.402h17.145v62.34h-17.145z"/>
 <path d="m5 62.02h17.145v32.723h-17.145z"/>
 <path d="m13.57 49.16c3.9453 0 7.1406-3.1992 7.1406-7.1406 0-0.93359-0.19141-1.8242-0.51953-2.6406l13.75-11.223c1.125 0.73828 2.4688 1.1758 3.918 1.1758 1.8398 0 3.4961-0.71484 4.7617-1.8555l12.574 7.3984c-0.12109 0.51562-0.19531 1.0469-0.19531 1.6016 0 3.9453 3.1953 7.1445 7.1445 7.1445 3.9453 0 7.1445-3.1953 7.1445-7.1445 0-1.1797-0.3125-2.2734-0.81641-3.2539l14.652-14.527c0.99219 0.52344 2.1055 0.84766 3.3086 0.84766 3.9453 0 7.1445-3.1992 7.1445-7.1406 0-3.9453-3.1953-7.1445-7.1445-7.1445-3.9453 0-7.1445 3.1992-7.1445 7.1445 0 1.1758 0.3125 2.2734 0.81641 3.2539l-14.656 14.523c-0.99219-0.52344-2.1055-0.84766-3.3086-0.84766-1.8398 0-3.4961 0.71484-4.7617 1.8555l-12.574-7.3945c0.11719-0.51953 0.19531-1.0508 0.19531-1.6016 0-3.9453-3.1992-7.1445-7.1406-7.1445-3.9453 0-7.1445 3.1992-7.1445 7.1445 0 0.9375 0.19141 1.8242 0.51953 2.6406l-13.746 11.223c-1.125-0.74219-2.4688-1.1797-3.918-1.1797-3.9453 0-7.1445 3.1992-7.1445 7.1445 0.003907 3.9414 3.2031 7.1406 7.1445 7.1406z"/></svg>