<svg xmlns="http://www.w3.org/2000/svg" version="1.1" viewBox="-5.0 -10.0 110.0 135.0">
 <path d="m45 89c0 3.3125-2.6875 6-6 6h-18c-8.8359 0-16-7.1641-16-16v-58c0-8.8359 7.1641-16 16-16h18c3.3125 0 6 2.6875 6 6s-2.6875 6-6 6h-18c-2.2109 0-4 1.7891-4 4v58c0 2.207 1.7891 4 4 4h18c3.3125 0 6 2.6875 6 6z"/>
 <path d="m93.273 45.758c2.25 2.3633 2.3555 6.1289 0 8.4844l-20 20c-2.3438 2.3438-6.1406 2.3438-8.4844 0s-2.3438-6.1406 0-8.4844l9.7578-9.7578h-41.516c-3.3164 0-6-2.6875-6-6s2.6836-6 6-6h41.516l-9.7578-9.7578c-2.2539-2.3672-2.3555-6.1289 0-8.4844 2.3555-2.3555 6.1172-2.25 8.4844 0z"/>
</svg>