<svg xmlns="http://www.w3.org/2000/svg" version="1.1" viewBox="-5.0 -10.0 110.0 110.0">
 <path d="m15.59 41.242c3.8125 2.5547 8.418 3.6406 12.969 3.0547 4.5469-0.58203 8.7305-2.793 11.773-6.2227 3.043-3.4336 4.7383-7.8516 4.7773-12.438-0.039063-4.75-1.8633-9.3125-5.1055-12.781-3.2422-3.4727-7.6719-5.5977-12.406-5.957-4.7383-0.36328-9.4375 1.0664-13.168 4.0039-4.6055 3.7852-7.1758 9.5039-6.9492 15.461 0.23047 5.9531 3.2305 11.461 8.1094 14.879zm2.0781-18.758h0.003906c0.58594-0.58594 1.3789-0.91406 2.2109-0.91406 0.82813 0 1.6211 0.32813 2.2109 0.91406l2.6445 2.6484 5.6328-5.6328c1.2266-1.1797 3.1719-1.1602 4.375 0.042969s1.2227 3.1484 0.042968 4.375l-7.8438 7.8438c-1.2227 1.2109-3.1953 1.2109-4.4219 0l-4.8516-4.8555c-1.2227-1.2227-1.2227-3.1992 0-4.4219zm-3.2383 37.121c-4.6055 3.7812-7.1758 9.5039-6.9492 15.457 0.23047 5.957 3.2305 11.461 8.1094 14.883 3.8711 2.6367 8.5859 3.7461 13.223 3.1016 4.6406-0.64062 8.875-2.9844 11.887-6.5742 3.0078-3.5898 4.5742-8.168 4.3945-12.852-0.17969-4.6797-2.0898-9.125-5.3672-12.477-3.2734-3.3477-7.6758-5.3594-12.352-5.6445s-9.2891 1.1797-12.945 4.1055zm20.359 13.012-7.8438 7.8477c-1.2227 1.2109-3.1953 1.2109-4.418 0l-4.8555-4.8555c-1.1797-1.2266-1.1602-3.1719 0.042969-4.375 1.2031-1.207 3.1484-1.2227 4.375-0.042969l2.6445 2.6445 5.6367-5.6367c1.2266-1.1797 3.1719-1.1602 4.375 0.042969 1.2031 1.2031 1.2227 3.1484 0.042968 4.375zm38.875 18.215h-15.746c-1.707-0.023437-3.082-1.4141-3.082-3.125 0-1.707 1.375-3.0977 3.082-3.125h15.746c1.7109 0.027344 3.082 1.418 3.082 3.125 0 1.7109-1.3711 3.1016-3.082 3.125zm15.742-13.375h-31.488c-1.707-0.023437-3.082-1.4141-3.082-3.125 0-1.707 1.375-3.1016 3.082-3.125h31.492c1.707 0.023438 3.082 1.418 3.082 3.125 0 1.7109-1.375 3.1016-3.082 3.125zm0-13.379h-31.488c-1.707-0.023437-3.082-1.4141-3.082-3.125 0-1.707 1.375-3.1016 3.082-3.125h31.492c1.707 0.023437 3.082 1.418 3.082 3.125 0 1.7109-1.375 3.1016-3.082 3.125zm-15.742-21.945h-15.746c-1.707-0.023437-3.082-1.4141-3.082-3.125 0-1.707 1.375-3.1016 3.082-3.125h15.746c1.7109 0.023438 3.082 1.418 3.082 3.125 0 1.7109-1.3711 3.1016-3.082 3.125zm15.742-13.379h-31.488c-1.707-0.023437-3.082-1.4141-3.082-3.125 0-1.707 1.375-3.1016 3.082-3.125h31.492c1.707 0.023438 3.0781 1.418 3.082 3.125 0 1.7109-1.375 3.1016-3.082 3.125zm0-13.375h-31.488c-1.707-0.023437-3.082-1.418-3.082-3.125 0-1.7109 1.375-3.1016 3.082-3.125h31.492c1.707 0.023438 3.082 1.4141 3.082 3.125 0 1.707-1.375 3.1016-3.082 3.125z"/></svg>