<svg xmlns="http://www.w3.org/2000/svg" version="1.1" viewBox="-5.0 -10.0 110.0 110.0">
 <path d="m15.625 10.418v34.375h-2.082c-4.6016 0-8.332-3.7305-8.332-8.332l-0.003907-26.043c0-2.875 2.332-5.207 5.207-5.207s5.207 2.332 5.207 5.207zm18.75 47.918c0 1.707 1.418 3.125 3.125 3.125h16.293c-0.45703 1.668-0.66797 3.418-0.66797 5.207 0 1.793 0.20703 3.543 0.66797 5.207h-16.293c-1.707 0-3.125 1.418-3.125 3.125s1.418 3.125 3.125 3.125h18.918c3.832 6.25 10.75 10.418 18.582 10.418 2.582 0 5.043-0.45703 7.332-1.293l2.293 2.293c-2.043 3.168-5.582 5.25-9.625 5.25h-41.668c-6.332 0-11.457-5.125-11.457-11.457v-72.918c0-1.875-0.5-3.625-1.293-5.207h54.418c6.332 0 11.457 5.125 11.457 11.457v31.418c-3.332-2.082-7.293-3.293-11.457-3.293-7.832 0-14.75 4.168-18.582 10.418h-18.918c-1.707 0-3.125 1.418-3.125 3.125zm0-33.332c0 1.707 1.418 3.125 3.125 3.125h33.332c1.707 0 3.125-1.418 3.125-3.125 0-1.707-1.418-3.125-3.125-3.125h-33.332c-1.707 0-3.125 1.418-3.125 3.125zm0 16.668c0 1.707 1.418 3.125 3.125 3.125h16.668c1.707 0 3.125-1.418 3.125-3.125s-1.418-3.125-3.125-3.125h-16.668c-1.707 0-3.125 1.418-3.125 3.125zm59.5 39.457-5.8555-5.8555c1.6367-2.4688 2.6055-5.4219 2.6055-8.6016 0-8.6133-7.0117-15.625-15.625-15.625s-15.625 7.0117-15.625 15.625 7.0117 15.625 15.625 15.625c3.1797 0 6.1328-0.96484 8.6016-2.6055l5.8555 5.8555c0.60938 0.60938 1.4062 0.91406 2.2109 0.91406 0.80078 0 1.5977-0.30469 2.2109-0.91406 1.2227-1.2227 1.2227-3.1992 0-4.418z"/></svg>