<svg xmlns="http://www.w3.org/2000/svg" version="1.1" viewBox="-5.0 -5.0 110.0 110.0">
 <path d="m70.523 13.77c0.085937-0.69531 0.64844-1.2695 1.3516-1.2695s1.2656 0.57422 1.3516 1.2695c0.57422 4.6094 4.2266 8.2617 8.8359 8.8359 0.69922 0.089843 1.2695 0.64844 1.2695 1.3516s-0.57031 1.2656-1.2695 1.3516c-4.6094 0.57422-8.2617 4.2266-8.8359 8.8359-0.085937 0.69922-0.64844 1.2734-1.3516 1.2734s-1.2656-0.57422-1.3516-1.2734c-0.57422-4.6094-4.2266-8.2617-8.8359-8.8359-0.69922-0.085938-1.2695-0.64844-1.2695-1.3516s0.57031-1.2617 1.2695-1.3516c4.6094-0.57422 8.2617-4.2266 8.8359-8.8359z"/>
 <path d="m83.266 36.34c0.074219-0.50781 0.48047-0.92188 0.99219-0.92188 0.51172 0 0.91797 0.41406 1 0.92188 0.43359 2.7148 2.7383 4.8594 5.4844 5.2617 0.50781 0.070313 0.92578 0.48047 0.92578 0.99219s-0.41797 0.91797-0.92578 0.98828c-2.8398 0.40625-5.0859 2.6523-5.4922 5.4961-0.070312 0.50391-0.48047 0.92188-0.99219 0.92188-0.51172 0-0.91797-0.41797-0.99219-0.92188-0.39844-2.7461-2.543-5.0547-5.2617-5.4883-0.50391-0.078125-0.92188-0.48438-0.92188-0.99609s0.41797-0.91797 0.92578-0.99609c2.7109-0.39844 4.8555-2.5469 5.2578-5.2578z"/>
 <path d="m43.75 73.957c12.656 0 22.918-10.258 22.918-22.914s-10.262-22.918-22.918-22.918-22.918 10.262-22.918 22.918c0 4.1992 1.1328 8.1367 3.1055 11.523 0.50781 0.86719 0.41406 1.9805-0.29688 2.6914l-12.184 12.184c-1.625 1.625-1.625 4.2656 0 5.8906 1.6289 1.6289 4.2656 1.6289 5.8945 0l12.184-12.18c0.71094-0.71094 1.8203-0.80469 2.6914-0.29688 3.3828 1.9727 7.3203 3.1016 11.523 3.1016zm0-8.332c8.0547 0 14.582-6.5273 14.582-14.582 0-8.0547-6.5273-14.586-14.582-14.586s-14.582 6.5312-14.582 14.586c0 8.0547 6.5273 14.582 14.582 14.582z" fill-rule="evenodd"/>
</svg>