<svg xmlns="http://www.w3.org/2000/svg" xmlns:xlink="http://www.w3.org/1999/xlink" version="1.1" x="0px" y="0px" viewBox="0 0 32 32" style="enable-background:new 0 0 32 32;" xml:space="preserve"><path d="M9.1,12H2.9C2.4,12,2,12.4,2,12.9V28c0,1.1,0.9,2,2,2h5.1c0.5,0,0.9-0.4,0.9-0.9V12.9C10,12.4,9.6,12,9.1,12z"/><path d="M19.1,12h-6.3c-0.5,0-0.9,0.4-0.9,0.9v16.3c0,0.5,0.4,0.9,0.9,0.9h6.3c0.5,0,0.9-0.4,0.9-0.9V12.9C20,12.4,19.6,12,19.1,12z  "/><path d="M28,2H4C2.9,2,2,2.9,2,4v5.1C2,9.6,2.4,10,2.9,10h26.3c0.5,0,0.9-0.4,0.9-0.9V4C30,2.9,29.1,2,28,2z"/><path d="M29.1,12h-6.3c-0.5,0-0.9,0.4-0.9,0.9v16.3c0,0.5,0.4,0.9,0.9,0.9H28c1.1,0,2-0.9,2-2V12.9C30,12.4,29.6,12,29.1,12z"/></svg>