<svg xmlns:dc="http://purl.org/dc/elements/1.1/" xmlns:cc="http://creativecommons.org/ns#" xmlns:rdf="http://www.w3.org/1999/02/22-rdf-syntax-ns#" xmlns:svg="http://www.w3.org/2000/svg" xmlns="http://www.w3.org/2000/svg" xmlns:sodipodi="http://sodipodi.sourceforge.net/DTD/sodipodi-0.dtd" xmlns:inkscape="http://www.inkscape.org/namespaces/inkscape" viewBox="0 0 1189.0749 1124.0235875" version="1.1" x="0px" y="0px"><g transform="translate(-3291.026,-2242.5661)"><path style="" d="m 3291.026,3137.7225 c -0.01,-11.512 4.6966,-49.6145 8.1364,-65.9375 3.1968,-15.1697 5.9452,-26.8599 7.4939,-31.875 0.8492,-2.75 2.5166,-8.375 3.7053,-12.5 3.1309,-10.8642 11.1184,-32.6773 15.105,-41.25 0.9592,-2.0625 4.4695,-9.6562 7.8008,-16.875 23.6741,-51.3004 65.5937,-105.8609 109.5333,-142.5632 18.692,-15.6132 38.9049,-30.2437 56.3781,-40.8075 20.9501,-12.6659 42.1181,-23.1579 63.724,-31.5851 7.5625,-2.9497 14.5938,-5.7667 15.625,-6.26 1.0313,-0.4934 6.0938,-2.1442 11.25,-3.6685 5.1563,-1.5244 11.625,-3.5249 14.375,-4.4456 28.0486,-9.3906 81.1712,-16.9201 119.375,-16.9201 38.2038,0 91.3264,7.5295 119.375,16.9201 2.75,0.9207 9.2188,2.9212 14.375,4.4456 5.1563,1.5243 10.2188,3.1751 11.25,3.6685 1.0313,0.4933 8.0625,3.3103 15.625,6.26 42.5594,16.6 81.1692,39.8723 120.1021,72.3926 43.9396,36.7023 85.8592,91.2628 109.5333,142.5632 3.3313,7.2188 6.8416,14.8125 7.8008,16.875 3.9866,8.5727 11.9741,30.3858 15.105,41.25 1.1887,4.125 2.8561,9.75 3.7053,12.5 1.5306,4.9565 3.7446,14.3815 7.3407,31.25 3.5532,16.667 8.2949,54.7407 8.2896,66.5625 l 0,4.0625 -432.5,0 -432.5,0 0,-4.0625 z m 824.3114,-282.5 c 4.3897,-45.0721 21.7366,-82.1548 53.1049,-113.523 26.6798,-26.6799 55.7774,-42.4074 93.8355,-50.7191 15.157,-3.3102 54.843,-3.3102 70,0 38.0581,8.3117 67.1557,24.0392 93.8355,50.7191 31.3683,31.3682 48.7152,68.4509 53.1049,113.523 l 0.8826,9.0625 -182.823,0 -182.823,0 0.8826,-9.0625 z m -413.7261,-194.5872 c -21.5748,-2.0862 -47.8447,-9.5928 -69.0963,-19.7444 -53.4654,-25.5396 -96.1192,-76.667 -111.3505,-133.4713 -5.7131,-21.3067 -6.8556,-30.5778 -6.8556,-55.6347 0,-25.0568 1.1425,-34.3279 6.8556,-55.6346 18.7242,-69.8308 76.8978,-128.0044 146.7287,-146.7287 21.3066,-5.7131 30.5778,-6.8555 55.6346,-6.8555 25.0568,0 34.328,1.1424 55.6346,6.8555 69.8309,18.7243 128.0045,76.8979 146.7287,146.7287 5.7131,21.3067 6.8556,30.5778 6.8556,55.6346 0,25.0569 -1.1425,34.328 -6.8556,55.6347 -18.7908,70.0793 -77.5078,128.5917 -147.3633,146.8501 -23.7374,6.2043 -53.2905,8.6501 -76.9165,6.3656 z m 578.1665,-0.6383 c -17.1631,-3.6308 -32.0081,-11.5679 -44.4121,-23.7454 -43.3902,-42.5984 -31.8758,-115.1567 22.5371,-142.0174 14.1447,-6.9825 23.7444,-9.2337 39.375,-9.2337 15.6306,0 25.2303,2.2512 39.375,9.2337 22.5145,11.1142 39.2844,31.5004 46.3137,56.3008 3.1541,11.1281 3.1983,33.7993 0.088,45 -8.5593,30.8206 -32.6044,55.0285 -62.7426,63.1672 -10.2763,2.7751 -30.485,3.4206 -40.5338,1.2948 z" fill="#000000"/></g><text x="0" y="914.21887" fill="#000000" font-size="5px" font-weight="bold" font-family="'Helvetica Neue', Helvetica, Arial-Unicode, Arial, Sans-serif">Created by iconeu</text><text x="0" y="919.21887" fill="#000000" font-size="5px" font-weight="bold" font-family="'Helvetica Neue', Helvetica, Arial-Unicode, Arial, Sans-serif">from the Noun Project</text></svg>